<?xml version="1.0" standalone="no"?>
<!DOCTYPE svg PUBLIC "-//W3C//DTD SVG 20010904//EN"
 "http://www.w3.org/TR/2001/REC-SVG-20010904/DTD/svg10.dtd">
<svg version="1.0" xmlns="http://www.w3.org/2000/svg"
 width="240.000000pt" height="80.000000pt" viewBox="0 0 240.000000 80.000000"
 preserveAspectRatio="xMidYMid meet">
<metadata>
Created by potrace 1.13, written by Peter Selinger 2001-2015
</metadata>
<g transform="translate(0.000000,80.000000) scale(0.100000,-0.100000)"
fill="#000000" stroke="none">
<path d="M122 624 c-21 -14 -22 -23 -22 -127 0 -62 4 -117 8 -123 4 -6 28 -20
53 -32 37 -18 63 -22 146 -22 119 0 133 4 133 37 0 17 -4 23 -13 20 -10 -4
-13 2 -9 18 6 34 -15 65 -43 65 -20 0 -25 -5 -25 -24 0 -35 -13 -39 -86 -31
l-64 7 0 41 c0 24 9 56 20 75 11 18 20 35 20 37 0 10 -47 4 -58 -7 -9 -9 -12
-8 -12 5 0 15 12 17 85 17 84 0 85 0 85 -25 0 -21 5 -25 28 -25 15 0 37 -3 50
-6 16 -5 22 -2 22 10 0 9 -4 16 -9 16 -5 0 -12 16 -15 35 -4 19 -15 39 -26 45
-10 5 -70 10 -132 10 -87 0 -119 -4 -136 -16z"/>
<path d="M576 627 c-23 -17 -31 -93 -14 -126 7 -14 27 -28 46 -33 17 -5 32
-13 32 -18 0 -6 35 -10 80 -10 64 0 80 -3 80 -15 0 -12 -18 -15 -100 -15 -85
0 -100 2 -100 16 0 11 -5 14 -16 10 -9 -3 -22 -6 -30 -6 -20 0 -17 -44 4 -63
10 -10 25 -17 33 -17 9 0 24 -7 35 -15 29 -22 236 -21 255 1 16 20 18 92 3
102 -7 4 -15 22 -19 40 -9 43 -29 52 -127 53 -46 0 -77 3 -70 6 14 6 16 33 2
33 -5 0 -19 -9 -29 -19 -19 -19 -19 -19 -25 2 -3 12 -2 24 2 28 4 3 46 4 94 1
69 -3 86 -7 81 -18 -6 -15 8 -17 45 -8 29 8 29 48 0 68 -29 21 -235 23 -262 3z"/>
<path d="M1000 495 l0 -145 29 0 c16 0 34 -7 41 -15 17 -20 196 -21 245 -1 66
28 83 109 41 193 -49 96 -85 113 -248 113 l-108 0 0 -145z m250 65 c39 -39 38
-108 -3 -134 -22 -14 -53 -19 -114 -17 -31 1 -33 3 -33 37 0 38 26 104 41 104
5 0 9 5 9 11 0 7 -15 10 -40 7 -22 -2 -40 0 -40 4 0 5 36 8 80 8 66 0 83 -3
100 -20z"/>
<path d="M1470 495 l0 -145 30 0 30 0 2 93 c2 86 2 87 6 22 l3 -70 17 39 17
39 39 -47 c21 -26 43 -46 49 -45 7 1 20 -1 30 -6 21 -9 47 10 47 36 0 12 -6
17 -20 14 -11 -2 -20 -2 -20 1 0 3 18 31 40 61 l40 56 0 -96 0 -97 34 0 c19 0
37 6 39 13 3 7 6 4 6 -6 1 -10 6 -15 11 -12 6 3 10 50 10 105 0 75 -3 101 -14
107 -8 4 -16 24 -18 43 -2 29 -7 36 -29 38 -21 2 -33 -7 -69 -55 -24 -32 -54
-70 -66 -85 l-22 -27 -69 84 c-55 69 -73 85 -95 85 l-28 0 0 -145z"/>
<path d="M2012 624 c-18 -13 -22 -24 -22 -74 l0 -59 53 -26 c42 -19 68 -25
118 -23 l64 1 -50 6 -50 7 53 4 c51 5 52 5 52 -22 l0 -28 -95 0 c-81 0 -95 2
-95 16 0 11 -5 14 -16 10 -9 -3 -22 -6 -30 -6 -17 0 -19 -51 -2 -68 7 -7 22
-12 34 -12 13 0 29 -7 38 -15 22 -22 228 -22 250 1 20 20 21 88 1 104 -8 7
-15 23 -15 36 0 39 -35 54 -129 54 -74 0 -82 2 -66 13 12 10 14 16 7 21 -15 9
-54 -12 -47 -25 4 -5 1 -9 -4 -9 -6 0 -11 14 -11 31 0 30 2 31 31 25 17 -3 58
-6 90 -6 48 0 59 -3 59 -16 0 -12 6 -15 23 -10 12 3 28 6 36 6 18 0 6 50 -16
68 -26 19 -232 16 -261 -4z"/>
</g>
</svg>
